<?xml version="1.0" standalone="no"?><svg xmlns:xlink="http://www.w3.org/1999/xlink" xmlns="http://www.w3.org/2000/svg" viewBox="0 0 1000 499.99999999999994" preserveAspectRatio="xMaxYMax slice"><g transform="scale(1.408450704225352)"><rect x="0" y="0" width="710" height="355" fill="#ffffff"/><rect x="0" y="0" width="118.33" height="118.33" fill="#e5e8f4"/><path d="M 0 118.33 A 118.33 118.33 0 0 0 118.33 0 L 0 0" fill="#d7dcee"/><rect x="118.33333333333333" y="0" width="118.33333333333333" height="118.33333333333333" fill="#ffffff"/><rect x="118.33" y="0" width="59.17" height="59.17" fill="#bac2e4"/><polygon points="177.5,0 177.5,59.17 118.33,59.17" fill="#fafbfd"/><rect x="177.5" y="0" width="59.17" height="59.17" fill="#9fabda"/><polygon points="177.5,0 236.67000000000002,59.17 177.5,59.17" fill="#f1f3fa"/><rect x="118.33" y="59.17" width="59.17" height="59.17" fill="#e2e6f3"/><polygon points="118.33,59.17 177.5,59.17 177.5,118.34" fill="#e6e9f4"/><rect x="177.5" y="59.17" width="59.17" height="59.17" fill="#d1d7ed"/><polygon points="177.5,59.17 236.67000000000002,59.17 177.5,118.34" fill="#d4d9ed"/><rect x="236.66666666666666" y="0" width="118.33333333333333" height="118.33333333333333" fill="#ffffff"/><rect x="236.67" y="0" width="59.17" height="59.17" fill="#f2f3f9"/><path d="M 236.67 0 A 59.17 59.17 0 0 0 295.84 59.17 L 295.84 0" fill="#ced4ea"/><rect x="295.83" y="0" width="59.17" height="59.17" fill="#f9fafd"/><path d="M 295.83 59.17 A 59.17 59.17 0 0 0 355 0 L 295.83 0" fill="#d8ddee"/><rect x="236.67" y="59.17" width="59.17" height="59.17" fill="#e4e7f3"/><path d="M 236.67 118.34 A 59.17 59.17 0 0 1  295.84 59.17 L 295.84 118.34" fill="#fdfdfe"/><rect x="295.83" y="59.17" width="59.17" height="59.17" fill="#d2d7eb"/><path d="M 295.83 59.17 A 59.17 59.17 0 0 1 355 118.34 L 295.83 118.34" fill="#cbd2eb"/><rect x="355" y="0" width="118.33" height="118.33" fill="#e4e7f4"/><rect x="355" y="0" width="118.33" height="118.33" fill="#bac3e4"/><rect x="473.3333333333333" y="0" width="118.33333333333333" height="118.33333333333333" fill="#ffffff"/><rect x="473.33" y="0" width="59.17" height="59.17" fill="#dce0f0"/><path d="M 473.33 59.17 A 59.17 59.17 0 0 1  532.5 0 L 532.5 59.17" fill="#99a6d7"/><rect x="532.5" y="0" width="59.17" height="59.17" fill="#e4e7f3"/><path d="M 532.5 0 A 59.17 59.17 0 0 1 591.67 59.17 L 532.5 59.17" fill="#edf0f8"/><rect x="473.33" y="59.17" width="59.17" height="59.17" fill="#adb7df"/><path d="M 473.33 59.17 A 59.17 59.17 0 0 0 532.5 118.34 L 532.5 59.17" fill="#f7f8fb"/><rect x="532.5" y="59.17" width="59.17" height="59.17" fill="#e7eaf6"/><path d="M 532.5 118.34 A 59.17 59.17 0 0 0 591.67 59.17 L 532.5 59.17" fill="#cdd2e9"/><rect x="591.67" y="0" width="118.33" height="118.33" fill="#e0e4f3"/><path d="M 591.67 118.33 A 118.33 118.33 0 0 1  710 0 L 591.67 118.33 A 118.33 118.33 0 0 0 710 0" fill="#d9deef"/><rect x="0" y="118.33" width="118.33" height="118.33" fill="#b1bbe1"/><polygon points="0,118.33 118.33,118.33 0,236.66" fill="#d3d8ec"/><rect x="118.33" y="118.33" width="118.33" height="118.33" fill="#edf0f8"/><rect x="118.33" y="118.33" width="118.33" height="118.33" fill="#d0d6ed"/><rect x="236.67" y="118.33" width="118.33" height="118.33" fill="#fcfcfe"/><rect x="236.67" y="118.33" width="118.33" height="118.33" fill="#dee2f2"/><rect x="355" y="118.33333333333333" width="118.33333333333333" height="118.33333333333333" fill="#ffffff"/><rect x="355" y="118.33" width="59.17" height="59.17" fill="#f6f7fb"/><path d="M 355 118.33 A 59.17 59.17 0 0 0 414.17 177.5 L 414.17 118.33" fill="#8190ce"/><rect x="414.17" y="118.33" width="59.17" height="59.17" fill="#eef0f8"/><path d="M 414.17 177.5 A 59.17 59.17 0 0 0 473.34000000000003 118.33 L 414.17 118.33" fill="#d1d6eb"/><rect x="355" y="177.5" width="59.17" height="59.17" fill="#cfd4ea"/><path d="M 355 236.67000000000002 A 59.17 59.17 0 0 1  414.17 177.5 L 414.17 236.67000000000002" fill="#cad0e8"/><rect x="414.17" y="177.5" width="59.17" height="59.17" fill="#e7eaf5"/><path d="M 414.17 177.5 A 59.17 59.17 0 0 1 473.34000000000003 236.67000000000002 L 414.17 236.67000000000002" fill="#8997d1"/><rect x="473.3333333333333" y="118.33333333333333" width="118.33333333333333" height="118.33333333333333" fill="#ffffff"/><rect x="473.33" y="118.33" width="59.17" height="59.17" fill="#f6f7fb"/><polygon points="532.5,118.33 532.5,177.5 473.33,177.5" fill="#eef0f8"/><rect x="532.5" y="118.33" width="59.17" height="59.17" fill="#f9fafc"/><polygon points="532.5,118.33 591.67,118.33 532.5,177.5" fill="#d2d8ee"/><rect x="473.33" y="177.5" width="59.17" height="59.17" fill="#d3d8ec"/><polygon points="473.33,177.5 532.5,177.5 532.5,236.67000000000002" fill="#c5cce8"/><rect x="532.5" y="177.5" width="59.17" height="59.17" fill="#f6f7fb"/><polygon points="532.5,177.5 591.67,236.67000000000002 532.5,236.67000000000002" fill="#f0f2f9"/><rect x="591.67" y="118.33" width="118.33" height="118.33" fill="#8493cf"/><path d="M 591.67 236.66 A 118.33 118.33 0 0 0 710 118.33 L 591.67 118.33" fill="#fbfbfd"/><rect x="0" y="236.67" width="118.33" height="118.33" fill="#e0e4f2"/><rect x="0" y="236.67" width="118.33" height="118.33" fill="#f3f5fa"/><rect x="118.33" y="236.67" width="118.33" height="118.33" fill="#c0c8e7"/><path d="M 118.33 355 A 118.33 118.33 0 0 1  236.66 236.67 L 236.66 355" fill="#dce0f0"/><rect x="236.66666666666666" y="236.66666666666666" width="118.33333333333333" height="118.33333333333333" fill="#ffffff"/><rect x="236.67" y="236.67" width="59.17" height="59.17" fill="#f8f9fc"/><path d="M 236.67 295.84 A 59.17 59.17 0 0 1  295.84 236.67 L 295.84 295.84" fill="#f7f8fb"/><rect x="295.83" y="236.67" width="59.17" height="59.17" fill="#e8ebf6"/><path d="M 295.83 236.67 A 59.17 59.17 0 0 1 355 295.84 L 295.83 295.84" fill="#f6f7fb"/><rect x="236.67" y="295.83" width="59.17" height="59.17" fill="#eceef7"/><path d="M 236.67 295.83 A 59.17 59.17 0 0 0 295.84 355 L 295.84 295.83" fill="#b9c1e4"/><rect x="295.83" y="295.83" width="59.17" height="59.17" fill="#d5daed"/><path d="M 295.83 355 A 59.17 59.17 0 0 0 355 295.83 L 295.83 295.83" fill="#a5b1dc"/><rect x="355" y="236.66666666666666" width="118.33333333333333" height="118.33333333333333" fill="#ffffff"/><rect x="355" y="236.67" width="59.17" height="59.17" fill="#c3cae8"/><path d="M 355 295.84 A 59.17 59.17 0 0 1  414.17 236.67 L 414.17 295.84" fill="#f5f6fb"/><rect x="414.17" y="236.67" width="59.17" height="59.17" fill="#dadeef"/><path d="M 414.17 236.67 A 59.17 59.17 0 0 1 473.34000000000003 295.84 L 414.17 295.84" fill="#bdc5e5"/><rect x="355" y="295.83" width="59.17" height="59.17" fill="#93a1d5"/><path d="M 355 295.83 A 59.17 59.17 0 0 0 414.17 355 L 414.17 295.83" fill="#f6f7fb"/><rect x="414.17" y="295.83" width="59.17" height="59.17" fill="#cbd1e8"/><path d="M 414.17 355 A 59.17 59.17 0 0 0 473.34000000000003 295.83 L 414.17 295.83" fill="#f1f3f9"/><rect x="473.3333333333333" y="236.66666666666666" width="118.33333333333333" height="118.33333333333333" fill="#ffffff"/><rect x="473.33" y="236.67" width="59.17" height="59.17" fill="#9fabda"/><polygon points="532.5,236.67 532.5,295.84 473.33,295.84" fill="#d8ddee"/><rect x="532.5" y="236.67" width="59.17" height="59.17" fill="#8e9cd3"/><polygon points="532.5,236.67 591.67,295.84 532.5,295.84" fill="#eceff7"/><rect x="473.33" y="295.83" width="59.17" height="59.17" fill="#f6f7fb"/><polygon points="473.33,295.83 532.5,295.83 532.5,355" fill="#d7dcef"/><rect x="532.5" y="295.83" width="59.17" height="59.17" fill="#dbdff0"/><polygon points="532.5,295.83 591.67,295.83 532.5,355" fill="#eceff8"/><rect x="591.67" y="236.67" width="118.33" height="118.33" fill="#e3e7f4"/><polygon points="591.67,236.67 710,355 591.67,355" fill="#e2e6f4"/></g></svg>